name C:\Users\u0101727\Documents\MyRepositories\paper-ad\predictivesimulations_2d/Results/PredSim_2D/IK_c1.mot
datacolumns 11
datarows 47
range 0.00000000 0.44130987
endheader
time	pelvis_tilt	pelvis_tx	pelvis_ty	hip_flexion_l	hip_flexion_r	knee_angle_l	knee_angle_r	ankle_angle_l	ankle_angle_r	lumbar_extension	
          0.00000000	        -15.14215671	          0.00000000	          0.88363203	          0.96461487	         38.07654104	        -16.23112204	        -10.56515216	          5.77472312	         13.83899243	          9.64726179	
          0.00959369	        -15.10410616	          0.01477809	          0.88284580	          0.87091629	         37.59184769	        -17.72487607	         -9.95978850	          4.57434040	         13.39073703	          9.74415604	
          0.01918739	        -15.05500811	          0.02981963	          0.88200866	          0.85596376	         37.01197588	        -19.38613141	         -9.64044406	          3.27012081	         12.89037550	          9.85409177	
          0.02878108	        -14.99742036	          0.04510757	          0.88114400	          0.92699369	         36.26886035	        -21.21176492	         -9.72767830	          1.84205653	         12.33583732	          9.98104249	
          0.03837477	        -14.93955434	          0.06045603	          0.88037875	          1.08864175	         35.40564368	        -23.18319609	        -10.04179912	          0.37550407	         11.76646099	         10.11558030	
          0.04796846	        -14.89238479	          0.07552429	          0.87994242	          1.36776147	         34.54751194	        -25.20799238	        -10.32186322	         -0.90798280	         11.21618824	         10.23446089	
          0.05756216	        -14.86447673	          0.09006524	          0.88009674	          1.79261391	         33.73172165	        -27.14592280	        -10.58001442	         -1.91038501	         10.68489795	         10.32377047	
          0.06715585	        -14.85817187	          0.10401588	          0.88099748	          2.35910473	         32.96072791	        -28.93434424	        -10.81112478	         -2.66108051	         10.18725040	         10.38236754	
          0.07674954	        -14.86877780	          0.11745950	          0.88260384	          3.05045404	         32.21600159	        -30.59399188	        -11.00320638	         -3.16950355	          9.73953627	         10.41639212	
          0.08634324	        -14.88970265	          0.13052031	          0.88470600	          3.84611667	         31.47642617	        -32.15397341	        -11.14733920	         -3.44840027	          9.35324787	         10.43287126	
          0.09593693	        -14.91558275	          0.14330581	          0.88707137	          4.73054011	         30.72519338	        -33.63187868	        -11.23670082	         -3.51333851	          9.03466186	         10.43712005	
          0.10553062	        -14.94297919	          0.15589024	          0.88951724	          5.69169964	         29.95285898	        -35.03619104	        -11.26937926	         -3.37934327	          8.78539629	         10.43233326	
          0.11512431	        -14.96999755	          0.16832057	          0.89191998	          6.72058045	         29.15490090	        -36.36821259	        -11.24582222	         -3.06271017	          8.60442013	         10.42026780	
          0.12471801	        -14.99567607	          0.18062687	          0.89420038	          7.80978155	         28.32977418	        -37.62482728	        -11.16803328	         -2.58017746	          8.48909376	         10.40193289	
          0.13431170	        -15.01952574	          0.19282945	          0.89630805	          8.95312134	         27.47785232	        -38.80116466	        -11.03949570	         -1.94861095	          8.43567561	         10.37794464	
          0.14390539	        -15.04127995	          0.20494337	          0.89821054	         10.14505439	         26.60078627	        -39.89113350	        -10.86505463	         -1.18495354	          8.43962461	         10.34875470	
          0.15349909	        -15.06076637	          0.21698105	          0.89988689	         11.38022170	         25.70116952	        -40.88796625	        -10.65074400	         -0.30637330	          8.49580020	         10.31476933	
          0.16309278	        -15.07786072	          0.22895341	          0.90132447	         12.65320273	         24.78230670	        -41.78448477	        -10.40358274	          0.66973561	          8.59861935	         10.27640419	
          0.17268647	        -15.09247620	          0.24086993	          0.90251837	         13.95862419	         23.84817070	        -42.57308481	        -10.13157940	          1.72580281	          8.74226687	         10.23405291	
          0.18228016	        -15.10459764	          0.25273822	          0.90347188	         15.29147970	         22.90319800	        -43.24560111	         -9.84254736	          2.84415620	          8.92087675	         10.18803429	
          0.19187386	        -15.11434809	          0.26456560	          0.90419560	         16.64579137	         21.95128359	        -43.79450589	         -9.54354310	          4.00698273	          9.12796101	         10.13882393	
          0.20146755	        -15.12189043	          0.27635831	          0.90470646	         18.01573692	         20.99659770	        -44.21212782	         -9.24211672	          5.19643621	          9.35584137	         10.08685036	
          0.21106124	        -15.12736567	          0.28812190	          0.90502522	         19.39580972	         20.04370965	        -44.49068722	         -8.94613441	          6.39469665	          9.59646671	         10.03245752	
          0.22065494	        -15.13091925	          0.29986234	          0.90517330	         20.77954482	         19.09742588	        -44.62320825	         -8.66396826	          7.58397125	          9.84189125	          9.97602179	
          0.23024863	        -15.13277083	          0.31158670	          0.90517095	         22.16001401	         18.16099326	        -44.60406717	         -8.40125154	          8.74658844	         10.08477588	          9.91807666	
          0.23984232	        -15.13323703	          0.32330335	          0.90503628	         23.53030587	         17.23521912	        -44.42923368	         -8.15928992	          9.86517927	         10.31847167	          9.85936690	
          0.24943601	        -15.13259969	          0.33502103	          0.90478483	         24.88255826	         16.32151701	        -44.09666869	         -7.94087815	         10.92300795	         10.53618529	          9.80062414	
          0.25902971	        -15.13110388	          0.34674793	          0.90442971	         26.20880749	         15.42204764	        -43.60539955	         -7.74962752	         11.90463213	         10.73182903	          9.74246793	
          0.26862340	        -15.12899011	          0.35849316	          0.90398160	         27.50020240	         14.53839384	        -42.95853586	         -7.58859361	         12.79664992	         10.90075126	          9.68563599	
          0.27821709	        -15.12651658	          0.37026522	          0.90344964	         28.74871481	         13.67146949	        -42.16067476	         -7.45981329	         13.58882889	         11.03998520	          9.63082469	
          0.28781079	        -15.12394661	          0.38207065	          0.90284192	         29.94822458	         12.82212577	        -41.21607779	         -7.36431795	         14.27509118	         11.14839221	          9.57851372	
          0.29740448	        -15.12151860	          0.39391577	          0.90216499	         31.09301934	         11.99107634	        -40.13143598	         -7.30378759	         14.85383976	         11.22668072	          9.52914422	
          0.30699817	        -15.11945476	          0.40580493	          0.90142420	         32.18015848	         11.17864331	        -38.91223773	         -7.27912034	         15.32790321	         11.27766229	          9.48290571	
          0.31659186	        -15.11796624	          0.41774175	          0.90062336	         33.20825506	         10.38471299	        -37.56351118	         -7.29072262	         15.70355809	         11.30579192	          9.43986625	
          0.32618556	        -15.11727269	          0.42972959	          0.89976442	         34.17671772	          9.60903574	        -36.09065418	         -7.33860784	         15.98917077	         11.31638796	          9.40000557	
          0.33577925	        -15.11765670	          0.44177297	          0.89884752	         35.08405958	          8.85099732	        -34.50115373	         -7.42220091	         16.19388479	         11.31471534	          9.36339777	
          0.34537294	        -15.11950866	          0.45387835	          0.89787154	         35.92681182	          8.10954693	        -32.80275490	         -7.54044171	         16.32681938	         11.30438278	          9.33035092	
          0.35496664	        -15.12315048	          0.46605387	          0.89683533	         36.70039008	          7.38434415	        -31.00690972	         -7.69363132	         16.39675670	         11.28621496	          9.30125048	
          0.36456033	        -15.12865136	          0.47831152	          0.89574153	         37.39806962	          6.67628929	        -29.13980901	         -7.88544423	         16.41184053	         11.25860090	          9.27668753	
          0.37415402	        -15.13603998	          0.49066954	          0.89460256	         38.00689324	          5.98740673	        -27.23569433	         -8.12211009	         16.37935803	         11.21550394	          9.25796696	
          0.38374771	        -15.14533846	          0.50314945	          0.89344012	         38.51107571	          5.32085204	        -25.32676015	         -8.41074974	         16.30570497	         11.14451080	          9.24680989	
          0.39334141	        -15.15622829	          0.51577001	          0.89227673	         38.90120031	          4.68103560	        -23.44083901	         -8.75983417	         16.19627120	         11.02934022	          9.24440237	
          0.40293510	        -15.16791230	          0.52854581	          0.89113036	         39.17713874	          4.07321713	        -21.59981222	         -9.17921367	         16.05518059	         10.85346719	          9.25114972	
          0.41252879	        -15.17917722	          0.54148971	          0.89001532	         39.34577431	          3.50268540	        -19.82530225	         -9.67921647	         15.88502960	         10.60261752	          9.26698009	
          0.42212249	        -15.18880367	          0.55461558	          0.88894377	         39.41432373	          2.97432924	        -18.13209373	        -10.26952809	         15.68701098	         10.26394047	          9.29198552	
          0.43171618	        -15.19564804	          0.56793788	          0.88792489	         39.38960937	          2.49258198	        -16.53196358	        -10.95871664	         15.46101966	          9.82528478	          9.32640425	
          0.44130987	        -15.19845600	          0.58147079	          0.88696396	         39.27922950	          2.06205889	        -15.04195880	        -11.75577876	         15.20577126	          9.27580174	          9.37037539	
